<svg xmlns="http://www.w3.org/2000/svg" width="228" height="82" viewBox="0 0 228 82" fill="none">
  <g clip-path="url(#clip0_3385_39232)">
    <path d="M216.26 0.304688H11.6733C5.38702 0.304688 0.291016 5.63791 0.291016 12.2168V69.7818C0.291016 76.3606 5.38702 81.6938 11.6733 81.6938H216.26C222.546 81.6938 227.642 76.3606 227.642 69.7818V12.2168C227.642 5.63791 222.546 0.304688 216.26 0.304688Z" stroke="#E84142" stroke-width="0.745593"/>
    <path d="M96.4736 53.3748H100.61L98.5752 46.667L96.4736 53.3748ZM96.6838 42.7695H100.533L106.307 59.8167H102.613L101.562 56.3124H95.5553L94.4268 59.8167H90.8652L96.6838 42.7695Z" fill="#E84142"/>
    <path d="M114.269 47.209H117.654L113.307 59.8151H109.978L105.652 47.209H109.192L111.703 56.5074L114.269 47.209Z" fill="#E84142"/>
    <path d="M125.641 53.6854C125.442 53.8165 125.24 53.9244 125.033 54.0093C124.834 54.0864 124.558 54.1596 124.204 54.229L123.496 54.3678C122.833 54.4911 122.357 54.6415 122.069 54.8188C121.583 55.1195 121.339 55.586 121.339 56.2182C121.339 56.7811 121.487 57.1897 121.782 57.4441C122.084 57.6909 122.449 57.8142 122.876 57.8142C123.555 57.8142 124.178 57.6061 124.746 57.1897C125.321 56.7734 125.62 56.0139 125.641 54.9113V53.6854ZM123.728 52.1472C124.311 52.0701 124.727 51.9738 124.979 51.8582C125.428 51.6576 125.653 51.3454 125.653 50.9214C125.653 50.4047 125.48 50.0501 125.133 49.8574C124.794 49.6569 124.293 49.5567 123.629 49.5567C122.884 49.5567 122.357 49.7494 122.047 50.1349C121.825 50.4202 121.678 50.8057 121.604 51.2915H118.563C118.629 50.1889 118.924 49.283 119.448 48.5736C120.281 47.4634 121.711 46.9082 123.739 46.9082C125.059 46.9082 126.232 47.1819 127.257 47.7294C128.282 48.2768 128.795 49.3099 128.795 50.8288V56.6114C128.795 57.0124 128.802 57.4981 128.817 58.0687C128.838 58.5004 128.901 58.7934 129.005 58.9476C129.108 59.1018 129.263 59.229 129.469 59.3292V59.815H126.04C125.944 59.5605 125.878 59.3216 125.841 59.0979C125.804 58.8743 125.775 58.6199 125.753 58.3347C125.317 58.8281 124.816 59.2483 124.248 59.5952C123.57 60.0039 122.802 60.2082 121.947 60.2082C120.856 60.2082 119.953 59.8844 119.238 59.2368C118.529 58.5813 118.176 57.6562 118.176 56.4611C118.176 54.9113 118.747 53.7895 119.89 53.0956C120.517 52.7178 121.438 52.4479 122.656 52.286L123.728 52.1472Z" fill="#E84142"/>
    <path d="M134.369 59.8167H131.217V42.7695H134.369V59.8167Z" fill="#E84142"/>
    <path d="M143.65 53.6854C143.451 53.8165 143.248 53.9244 143.042 54.0093C142.843 54.0864 142.566 54.1596 142.212 54.229L141.504 54.3678C140.84 54.4911 140.365 54.6415 140.077 54.8188C139.591 55.1195 139.347 55.586 139.347 56.2182C139.347 56.7811 139.495 57.1897 139.79 57.4441C140.092 57.6909 140.457 57.8142 140.885 57.8142C141.563 57.8142 142.186 57.6061 142.754 57.1897C143.329 56.7734 143.628 56.0139 143.65 54.9113V53.6854ZM141.736 52.1472C142.319 52.0701 142.736 51.9738 142.986 51.8582C143.436 51.6576 143.661 51.3454 143.661 50.9214C143.661 50.4047 143.488 50.0501 143.141 49.8574C142.802 49.6569 142.3 49.5567 141.637 49.5567C140.892 49.5567 140.365 49.7494 140.055 50.1349C139.834 50.4202 139.686 50.8057 139.613 51.2915H136.571C136.637 50.1889 136.932 49.283 137.456 48.5736C138.289 47.4634 139.72 46.9082 141.748 46.9082C143.067 46.9082 144.24 47.1819 145.265 47.7294C146.29 48.2768 146.802 49.3099 146.802 50.8288V56.6114C146.802 57.0124 146.81 57.4981 146.825 58.0687C146.847 58.5004 146.91 58.7934 147.013 58.9476C147.116 59.1018 147.27 59.229 147.477 59.3292V59.815H144.048C143.952 59.5605 143.886 59.3216 143.849 59.0979C143.812 58.8743 143.783 58.6199 143.76 58.3347C143.326 58.8281 142.824 59.2483 142.256 59.5952C141.578 60.0039 140.811 60.2082 139.955 60.2082C138.864 60.2082 137.961 59.8844 137.245 59.2368C136.537 58.5813 136.184 57.6562 136.184 56.4611C136.184 54.9113 136.755 53.7895 137.898 53.0956C138.525 52.7178 139.447 52.4479 140.663 52.286L141.736 52.1472Z" fill="#E84142"/>
    <path d="M155.841 46.9082C157.087 46.9082 158.105 47.2513 158.893 47.9375C159.69 48.616 160.088 49.7456 160.088 51.3262V59.815H156.858V52.1472C156.858 51.4842 156.773 50.9753 156.604 50.6207C156.294 49.973 155.704 49.6491 154.834 49.6491C153.765 49.6491 153.031 50.1234 152.633 51.0717C152.427 51.5728 152.323 52.2128 152.323 52.9916V59.815H149.182V47.2321H152.224V49.0709C152.629 48.4233 153.013 47.9568 153.374 47.6715C154.023 47.1627 154.846 46.9082 155.841 46.9082Z" fill="#E84142"/>
    <path d="M169.756 51.7309C169.696 51.2606 169.546 50.8366 169.302 50.4588C168.949 49.9498 168.399 49.6955 167.654 49.6955C166.593 49.6955 165.866 50.2467 165.475 51.3492C165.269 51.9353 165.165 52.7139 165.165 53.6854C165.165 54.6106 165.269 55.3547 165.475 55.9175C165.851 56.9661 166.559 57.4904 167.599 57.4904C168.336 57.4904 168.86 57.2822 169.17 56.8659C169.479 56.4495 169.667 55.9098 169.734 55.2467H172.953C172.879 56.2491 172.532 57.1974 171.913 58.0917C170.925 59.5336 169.461 60.2545 167.521 60.2545C165.582 60.2545 164.155 59.6531 163.241 58.4503C162.327 57.2475 161.869 55.6862 161.869 53.7664C161.869 51.5999 162.374 49.9151 163.385 48.7124C164.395 47.5096 165.788 46.9082 167.566 46.9082C169.077 46.9082 170.313 47.2629 171.271 47.9722C172.237 48.6816 172.808 49.9345 172.986 51.7309H169.756Z" fill="#E84142"/>
    <path d="M181.358 46.8856C182.103 46.8856 182.778 47.0205 183.382 47.2904C183.994 47.5602 184.496 47.9727 184.887 48.5278C185.219 48.9982 185.421 49.4839 185.495 49.9851C185.569 50.4785 185.606 51.288 185.606 52.4137V59.8154H182.387V52.1477C182.387 51.4692 182.276 50.9218 182.055 50.5055C181.767 49.9195 181.222 49.6265 180.418 49.6265C179.584 49.6265 178.951 49.9195 178.515 50.5055C178.088 51.0837 177.874 51.9126 177.874 52.992V59.8154H174.732V42.8262H177.874V48.8517C178.331 48.1192 178.859 47.6103 179.456 47.3251C180.06 47.0321 180.695 46.8856 181.358 46.8856Z" fill="#E84142"/>
    <path d="M192.864 49.5929C192.134 49.5929 191.566 49.8319 191.16 50.3099C190.762 50.7879 190.512 51.4355 190.409 52.2528H195.309C195.257 51.3816 195.003 50.7224 194.545 50.2752C194.095 49.8203 193.535 49.5929 192.864 49.5929ZM192.864 46.875C193.867 46.875 194.77 47.0716 195.574 47.4649C196.378 47.8581 197.042 48.4787 197.565 49.3269C198.037 50.0747 198.343 50.9421 198.483 51.929C198.564 52.5073 198.597 53.34 198.582 54.4271H190.331C190.375 55.6916 190.755 56.5782 191.47 57.0871C191.905 57.4032 192.429 57.5612 193.041 57.5612C193.69 57.5612 194.217 57.3685 194.623 56.983C194.844 56.7748 195.039 56.4857 195.209 56.1156H198.428C198.347 56.8635 197.974 57.623 197.31 58.3939C196.278 59.6199 194.833 60.2328 192.975 60.2328C191.441 60.2328 190.087 59.7162 188.915 58.6831C187.742 57.65 187.156 55.9691 187.156 53.6407C187.156 51.4587 187.684 49.7856 188.738 48.6214C189.8 47.4571 191.175 46.875 192.864 46.875Z" fill="#E84142"/>
    <path d="M101.404 21.8379H106.99C108.094 21.8379 108.983 22.1648 109.66 22.8185C110.336 23.4664 110.673 24.3793 110.673 25.5572C110.673 26.5702 110.372 27.4537 109.769 28.2076C109.167 28.9555 108.24 29.3296 106.99 29.3296H103.086V34.8158H101.404V21.8379ZM108.975 25.5661C108.975 24.6119 108.638 23.9641 107.961 23.6225C107.589 23.4399 107.08 23.3486 106.432 23.3486H103.086V27.8454H106.432C107.187 27.8454 107.798 27.6775 108.266 27.3418C108.738 27.006 108.975 26.4142 108.975 25.5661Z" fill="#E84142"/>
    <path d="M115.827 33.7909C116.836 33.7909 117.526 33.3934 117.897 32.5983C118.274 31.7973 118.463 30.908 118.463 29.9303C118.463 29.0468 118.328 28.3283 118.058 27.7746C117.63 26.903 116.892 26.4671 115.844 26.4671C114.914 26.4671 114.239 26.8382 113.816 27.5802C113.394 28.3224 113.182 29.2176 113.182 30.266C113.182 31.2731 113.394 32.1124 113.816 32.7838C114.239 33.4552 114.909 33.7909 115.827 33.7909ZM115.887 25.0801C117.052 25.0801 118.038 25.4865 118.844 26.2993C119.649 27.1121 120.052 28.3076 120.052 29.8861C120.052 31.4115 119.697 32.6719 118.987 33.6673C118.278 34.6626 117.176 35.1603 115.683 35.1603C114.438 35.1603 113.45 34.7216 112.718 33.844C111.986 32.9605 111.619 31.7767 111.619 30.2925C111.619 28.7023 112.005 27.436 112.777 26.4937C113.549 25.5513 114.585 25.0801 115.887 25.0801Z" fill="#E84142"/>
    <path d="M122.225 25.3535L123.966 32.8099L125.732 25.3535H127.439L129.213 32.7657L131.064 25.3535H132.585L129.957 34.8153H128.377L126.535 27.4915L124.752 34.8153H123.171L120.561 25.3535H122.225Z" fill="#E84142"/>
    <path d="M137.449 25.1426C138.091 25.1426 138.714 25.3016 139.317 25.6196C139.919 25.9318 140.379 26.3381 140.694 26.8388C140.998 27.3158 141.201 27.8724 141.303 28.5085C141.392 28.9443 141.437 29.6393 141.437 30.5934H134.804C134.833 31.5534 135.049 32.325 135.455 32.9081C135.861 33.4852 136.489 33.7738 137.34 33.7738C138.134 33.7738 138.767 33.5 139.241 32.9522C139.511 32.6342 139.702 32.2661 139.815 31.8479H141.31C141.272 32.1954 141.139 32.5842 140.914 33.0141C140.694 33.4382 140.446 33.7856 140.17 34.0566C139.709 34.5278 139.137 34.8458 138.455 35.0107C138.088 35.1049 137.674 35.1521 137.213 35.1521C136.086 35.1521 135.131 34.725 134.348 33.871C133.566 33.0112 133.174 31.8096 133.174 30.2666C133.174 28.747 133.568 27.5131 134.357 26.5649C135.145 25.6167 136.176 25.1426 137.449 25.1426ZM139.874 29.3301C139.812 28.641 139.669 28.0903 139.444 27.678C139.026 26.9124 138.331 26.5295 137.356 26.5295C136.658 26.5295 136.072 26.7946 135.599 27.3247C135.126 27.8488 134.875 28.5174 134.847 29.3301H139.874Z" fill="#E84142"/>
    <path d="M143.012 25.3545H144.457V26.989C144.575 26.6709 144.865 26.2851 145.327 25.8316C145.789 25.3722 146.321 25.1426 146.924 25.1426C146.952 25.1426 147 25.1455 147.068 25.1514C147.136 25.1573 147.251 25.1691 147.414 25.1867V26.8652C147.324 26.8476 147.239 26.8359 147.161 26.83C147.087 26.8241 147.005 26.8211 146.916 26.8211C146.15 26.8211 145.561 27.0803 145.15 27.5985C144.738 28.1109 144.533 28.7029 144.533 29.3743V34.8163H143.012V25.3545Z" fill="#E84142"/>
    <path d="M152.152 25.1426C152.795 25.1426 153.417 25.3016 154.02 25.6196C154.623 25.9318 155.082 26.3381 155.397 26.8388C155.701 27.3158 155.904 27.8724 156.006 28.5085C156.095 28.9443 156.14 29.6393 156.14 30.5934H149.507C149.536 31.5534 149.753 32.325 150.159 32.9081C150.564 33.4852 151.192 33.7738 152.043 33.7738C152.837 33.7738 153.47 33.5 153.944 32.9522C154.214 32.6342 154.405 32.2661 154.518 31.8479H156.014C155.975 32.1954 155.842 32.5842 155.616 33.0141C155.397 33.4382 155.149 33.7856 154.873 34.0566C154.411 34.5278 153.839 34.8458 153.158 35.0107C152.791 35.1049 152.377 35.1521 151.916 35.1521C150.789 35.1521 149.834 34.725 149.051 33.871C148.269 33.0112 147.877 31.8096 147.877 30.2666C147.877 28.747 148.271 27.5131 149.059 26.5649C149.848 25.6167 150.879 25.1426 152.152 25.1426ZM154.577 29.3301C154.516 28.641 154.372 28.0903 154.147 27.678C153.73 26.9124 153.034 26.5295 152.059 26.5295C151.361 26.5295 150.775 26.7946 150.302 27.3247C149.829 27.8488 149.578 28.5174 149.549 29.3301H154.577Z" fill="#E84142"/>
    <path d="M158.635 30.1946C158.635 31.2076 158.841 32.0558 159.251 32.7389C159.663 33.4221 160.322 33.7637 161.229 33.7637C161.933 33.7637 162.511 33.4486 162.961 32.8184C163.417 32.1823 163.646 31.2724 163.646 30.0886C163.646 28.8929 163.412 28.0095 162.944 27.4382C162.477 26.861 161.899 26.5725 161.212 26.5725C160.446 26.5725 159.823 26.8787 159.345 27.4912C158.872 28.1037 158.635 29.0049 158.635 30.1946ZM160.925 25.1854C161.618 25.1854 162.198 25.3386 162.665 25.6448C162.936 25.8215 163.243 26.1307 163.586 26.5725V21.793H165.048V34.815H163.679V33.4987C163.324 34.0818 162.905 34.5029 162.42 34.762C161.936 35.0212 161.381 35.1508 160.756 35.1508C159.747 35.1508 158.874 34.709 158.136 33.8256C157.398 32.9363 157.029 31.7553 157.029 30.283C157.029 28.9047 157.365 27.7121 158.035 26.7049C158.711 25.692 159.674 25.1854 160.925 25.1854Z" fill="#E84142"/>
    <path d="M171.309 21.793H172.788V26.5017C173.12 26.0483 173.517 25.7037 173.979 25.4681C174.441 25.2267 174.942 25.1059 175.483 25.1059C176.609 25.1059 177.522 25.5123 178.221 26.325C178.925 27.1319 179.277 28.3246 179.277 29.903C179.277 31.399 178.931 32.6417 178.237 33.6312C177.545 34.6207 176.584 35.1154 175.356 35.1154C174.669 35.1154 174.089 34.9417 173.616 34.5942C173.334 34.388 173.033 34.0582 172.712 33.6047V34.815H171.309V21.793ZM175.264 33.7107C176.086 33.7107 176.7 33.3691 177.106 32.6859C177.517 32.0027 177.722 31.1016 177.722 29.9826C177.722 28.9872 177.517 28.1627 177.106 27.5089C176.7 26.8551 176.1 26.5282 175.306 26.5282C174.612 26.5282 174.004 26.7962 173.481 27.3322C172.962 27.8682 172.703 28.7516 172.703 29.9826C172.703 30.8719 172.81 31.5934 173.024 32.147C173.424 33.1895 174.171 33.7107 175.264 33.7107Z" fill="#E84142"/>
    <path d="M186.368 25.3535H188.05C187.835 25.9601 187.36 27.3443 186.621 29.5057C186.069 31.1313 185.607 32.4565 185.236 33.4813C184.357 35.8961 183.737 37.3685 183.377 37.8985C183.016 38.4286 182.397 38.6936 181.518 38.6936C181.304 38.6936 181.137 38.6848 181.019 38.6671C180.907 38.6495 180.765 38.6171 180.597 38.57V37.1211C180.861 37.1977 181.053 37.2448 181.172 37.2624C181.29 37.2801 181.394 37.289 181.484 37.289C181.766 37.289 181.971 37.2389 182.101 37.1388C182.236 37.0446 182.348 36.9267 182.439 36.7854C182.467 36.7383 182.568 36.4968 182.743 36.061C182.918 35.6251 183.045 35.3012 183.123 35.0892L179.777 25.3535H181.501L183.926 33.0572L186.368 25.3535Z" fill="#E84142"/>
    <path fill-rule="evenodd" clip-rule="evenodd" d="M79.5963 41.0185C79.5963 55.3083 68.5277 66.8925 54.8734 66.8925C41.2193 66.8925 30.1504 55.3083 30.1504 41.0185C30.1504 26.7287 41.2193 15.1445 54.8734 15.1445C68.5277 15.1445 79.5963 26.7287 79.5963 41.0185ZM47.868 51.3152H43.0699C42.0617 51.3152 41.5637 51.3152 41.26 51.1118C40.9321 50.8894 40.7316 50.5207 40.7073 50.114C40.6891 49.7389 40.9381 49.2813 41.4361 48.366L53.2832 26.5119C53.7873 25.5839 54.0423 25.1199 54.3642 24.9483C54.7105 24.7639 55.1234 24.7639 55.4697 24.9483C55.7915 25.1199 56.0466 25.5839 56.5507 26.5119L58.9862 30.9612L58.9986 30.984C59.543 31.9796 59.8192 32.4845 59.9397 33.0143C60.0733 33.5928 60.0733 34.203 59.9397 34.7814C59.8182 35.3153 59.5449 35.8238 58.9923 36.8344L52.7693 48.3469L52.7532 48.3764C52.2052 49.3802 51.9274 49.8889 51.5425 50.2728C51.1234 50.6924 50.6193 50.9975 50.0666 51.1691C49.5625 51.3152 48.9977 51.3152 47.868 51.3152ZM59.9851 51.3155H66.8603C67.8745 51.3155 68.3848 51.3155 68.6884 51.1057C69.0163 50.8833 69.2228 50.5082 69.2411 50.1014C69.2587 49.7387 69.0151 49.2989 68.5376 48.4368C68.5213 48.4074 68.5047 48.3775 68.4879 48.3471L65.0443 42.1815L65.005 42.1122C64.5211 41.2557 64.2767 40.8232 63.9632 40.6561C63.617 40.4717 63.2101 40.4717 62.8639 40.6561C62.548 40.8277 62.293 41.279 61.7889 42.1879L58.3574 48.3535L58.3456 48.3747C57.8432 49.2822 57.5922 49.7357 57.6103 50.1078C57.6346 50.5146 57.8351 50.8896 58.163 51.1121C58.4606 51.3155 58.9708 51.3155 59.9851 51.3155Z" fill="#E84142"/>
  </g>
  <defs>
    <clipPath id="clip0_3385_39232">
      <rect width="228" height="82" fill="white"/>
    </clipPath>
  </defs>
</svg>